# xmcd
#
# Track frame offsets: 
#        150
#        13396
#        25782
#        39631
#        51528
#        65900
#        76761
#        89660
#        100782
#        114364
#        127613
#        140623
#        150284
#        161532
#        173920
#        185845
#        196054
#        209967
#        220346
#        231129
#        240668
#        249836
#        262175
#        273397
#
# Disc length: 3806 seconds
#
# Revision: 0
# Processed by: cddbd v1.5.2PL0 Copyright (c) Steve Scherf et al.
# Submitted via: ExactAudioCopy v0.99pb4
#
DISCID=5b0edc18
DTITLE=T-Bone Walker - Trailblazing the Blues CD3
DYEAR=2008
DGENRE=Blues
TTITLE0=I Got the Blues
TTITLE1=Life Is Too Short
TTITLE2=Street Walking Woman
TTITLE3=Tell Me What's the Reason
TTITLE4=Through with Women
TTITLE5=Welcome Baby (Say Pretty Baby)
TTITLE6=Blue Mood
TTITLE7=Every Time
TTITLE8=Here in the Dark
TTITLE9=High Society
TTITLE10=Love Is Just a Gamble
TTITLE11=Party Girl
TTITLE12=When the Sun Goes Down
TTITLE13=Bye, Bye Baby
TTITLE14=Got No Use for You
TTITLE15=I'll Always Be in Love with You
TTITLE16=I'm Still in Love with You
TTITLE17=Pony Tail
TTITLE18=Vida Lee
TTITLE19=Hard Way
TTITLE20=Teen Age Baby
TTITLE21=Papa Ain't Salty
TTITLE22=Play on Little Girl
TTITLE23=Why Not
EXTD=
EXTT0=
EXTT1=
EXTT2=
EXTT3=
EXTT4=
EXTT5=
EXTT6=
EXTT7=
EXTT8=
EXTT9=
EXTT10=
EXTT11=
EXTT12=
EXTT13=
EXTT14=
EXTT15=
EXTT16=
EXTT17=
EXTT18=
EXTT19=
EXTT20=
EXTT21=
EXTT22=
EXTT23=
PLAYORDER=
